STARTFONT 2.1
COMMENT $XConsortium: lubB12.bdf,v 1.10 94/04/02 16:24:10 gildea Exp $
COMMENT  (c) Copyright Bigelow & Holmes 1986, 1985. Lucida is a registered
COMMENT  trademark of Bigelow & Holmes. See LEGAL NOTICE file for terms 
COMMENT  of the license. 
COMMENT  
COMMENT  Translation to ISO8859-2 by Cub Soft;  Petr.Kolar@vslib.cz
COMMENT  
FONT -B&H-LucidaBright-DemiBold-R-Normal--17-120-100-100-P-101-ISO8859-2
SIZE 12 100 100
FONTBOUNDINGBOX 31 19 -11 -3
STARTPROPERTIES 20
COMMENT Begin LogicalFontDescription
FONTNAME_REGISTRY ""
FOUNDRY "B&H"
FAMILY_NAME "LucidaBright"
WEIGHT_NAME "DemiBold"
SLANT "R"
SETWIDTH_NAME "Normal"
ADD_STYLE_NAME ""
PIXEL_SIZE 17
POINT_SIZE 120
RESOLUTION_X 100
RESOLUTION_Y 100
SPACING "P"
AVERAGE_WIDTH 101
CHARSET_REGISTRY "ISO8859"
CHARSET_ENCODING "2"
COMMENT END LogicalFontDescription
FONT_ASCENT 15
FONT_DESCENT 4
DEFAULT_CHAR 0
COPYRIGHT "Copyright Bigelow & Holmes 1986, 1985., Copyright 1996 Cub Soft"
FACE_NAME "Lucida Bright Demibold"
ENDPROPERTIES
CHARS 191
STARTCHAR space
ENCODING 32
SWIDTH 333 0
DWIDTH 6 0
BBX 1 1 0 0
BITMAP
00
ENDCHAR
STARTCHAR exclam
ENCODING 33
SWIDTH 265 0
DWIDTH 4 0
BBX 2 13 1 0
BITMAP
c0
c0
c0
c0
c0
c0
40
40
40
00
00
c0
c0
ENDCHAR
STARTCHAR quotedbl
ENCODING 34
SWIDTH 461 0
DWIDTH 8 0
BBX 6 5 1 8
BITMAP
cc
cc
cc
48
48
ENDCHAR
STARTCHAR numbersign
ENCODING 35
SWIDTH 663 0
DWIDTH 11 0
BBX 11 13 0 0
BITMAP
0480
0880
0880
0880
7fe0
1100
1100
1100
ffc0
2200
2200
2200
2400
ENDCHAR
STARTCHAR dollar
ENCODING 36
SWIDTH 623 0
DWIDTH 11 0
BBX 7 15 2 -1
BITMAP
10
7e
d2
d2
d0
f0
70
38
1c
16
16
96
d6
fc
10
ENDCHAR
STARTCHAR percent
ENCODING 37
SWIDTH 759 0
DWIDTH 13 0
BBX 13 13 0 0
BITMAP
7818
8420
8460
84c0
8480
8500
7a00
04f0
0908
1908
3108
2108
c0f0
ENDCHAR
STARTCHAR ampersand
ENCODING 38
SWIDTH 765 0
DWIDTH 13 0
BBX 13 13 0 0
BITMAP
1f00
3180
3180
3180
1b00
3c00
6e78
ce30
c720
c3e0
c1c0
60e0
3ff8
ENDCHAR
STARTCHAR apostrophe
ENCODING 39
SWIDTH 265 0
DWIDTH 4 0
BBX 3 5 1 8
BITMAP
e0
e0
20
20
c0
ENDCHAR
STARTCHAR parenleft
ENCODING 40
SWIDTH 327 0
DWIDTH 6 0
BBX 4 16 1 -3
BITMAP
10
20
20
40
40
c0
c0
c0
c0
c0
c0
40
40
20
20
10
ENDCHAR
STARTCHAR parenright
ENCODING 41
SWIDTH 327 0
DWIDTH 6 0
BBX 4 16 1 -3
BITMAP
80
40
40
20
20
30
30
30
30
30
30
20
20
40
40
80
ENDCHAR
STARTCHAR asterisk
ENCODING 42
SWIDTH 434 0
DWIDTH 7 0
BBX 7 5 0 8
BITMAP
10
d6
6c
28
6c
ENDCHAR
STARTCHAR plus
ENCODING 43
SWIDTH 623 0
DWIDTH 11 0
BBX 9 11 1 0
BITMAP
0800
0800
0800
0800
0800
ff80
0800
0800
0800
0800
0800
ENDCHAR
STARTCHAR comma
ENCODING 44
SWIDTH 265 0
DWIDTH 4 0
BBX 3 6 1 -3
BITMAP
e0
e0
e0
20
20
c0
ENDCHAR
STARTCHAR minus
ENCODING 45
SWIDTH 623 0
DWIDTH 11 0
BBX 10 1 0 5
BITMAP
ffc0
ENDCHAR
STARTCHAR period
ENCODING 46
SWIDTH 265 0
DWIDTH 4 0
BBX 3 2 1 0
BITMAP
e0
e0
ENDCHAR
STARTCHAR slash
ENCODING 47
SWIDTH 527 0
DWIDTH 9 0
BBX 9 16 0 -3
BITMAP
0080
0100
0100
0200
0200
0400
0400
0800
0800
1000
1000
2000
2000
4000
4000
8000
ENDCHAR
STARTCHAR zero
ENCODING 48
SWIDTH 623 0
DWIDTH 11 0
BBX 10 13 0 0
BITMAP
1e00
3300
6180
4080
c0c0
c0c0
c0c0
c0c0
c0c0
4080
6180
3300
1e00
ENDCHAR
STARTCHAR one
ENCODING 49
SWIDTH 623 0
DWIDTH 11 0
BBX 6 13 2 0
BITMAP
f0
30
30
30
30
30
30
30
30
30
30
30
fc
ENDCHAR
STARTCHAR two
ENCODING 50
SWIDTH 623 0
DWIDTH 11 0
BBX 8 13 1 0
BITMAP
7c
c6
83
03
03
02
06
08
10
20
40
ff
ff
ENDCHAR
STARTCHAR three
ENCODING 51
SWIDTH 623 0
DWIDTH 11 0
BBX 7 13 2 0
BITMAP
f8
8e
86
06
04
08
78
0c
06
06
86
8c
f8
ENDCHAR
STARTCHAR four
ENCODING 52
SWIDTH 623 0
DWIDTH 11 0
BBX 9 13 1 0
BITMAP
0300
0700
0b00
1b00
1300
2300
4300
c300
ff80
0300
0300
0300
0780
ENDCHAR
STARTCHAR five
ENCODING 53
SWIDTH 623 0
DWIDTH 11 0
BBX 7 13 2 0
BITMAP
fe
80
80
80
f8
1c
0e
06
06
06
86
8c
f8
ENDCHAR
STARTCHAR six
ENCODING 54
SWIDTH 623 0
DWIDTH 11 0
BBX 9 13 1 0
BITMAP
1f00
3100
6100
c000
c000
de00
e300
c180
c180
c180
4180
6300
1e00
ENDCHAR
STARTCHAR seven
ENCODING 55
SWIDTH 623 0
DWIDTH 11 0
BBX 8 13 2 0
BITMAP
ff
ff
03
06
04
0c
18
18
30
30
60
60
60
ENDCHAR
STARTCHAR eight
ENCODING 56
SWIDTH 623 0
DWIDTH 11 0
BBX 9 13 1 0
BITMAP
3e00
6380
c180
c180
f100
7e00
3e00
4700
c380
c180
c180
6300
3e00
ENDCHAR
STARTCHAR nine
ENCODING 57
SWIDTH 623 0
DWIDTH 11 0
BBX 9 13 1 0
BITMAP
3c00
6300
c100
c180
c180
c180
6380
3d80
0180
0180
4300
4600
7c00
ENDCHAR
STARTCHAR colon
ENCODING 58
SWIDTH 265 0
DWIDTH 4 0
BBX 2 9 1 0
BITMAP
c0
c0
00
00
00
00
00
c0
c0
ENDCHAR
STARTCHAR semicolon
ENCODING 59
SWIDTH 265 0
DWIDTH 4 0
BBX 2 12 1 -3
BITMAP
c0
c0
00
00
00
00
00
c0
c0
40
40
80
ENDCHAR
STARTCHAR less
ENCODING 60
SWIDTH 623 0
DWIDTH 11 0
BBX 10 11 0 0
BITMAP
0040
00c0
0300
0c00
3000
c000
3000
0c00
0300
00c0
0040
ENDCHAR
STARTCHAR equal
ENCODING 61
SWIDTH 623 0
DWIDTH 11 0
BBX 10 5 0 2
BITMAP
ffc0
0000
0000
0000
ffc0
ENDCHAR
STARTCHAR greater
ENCODING 62
SWIDTH 623 0
DWIDTH 11 0
BBX 10 11 0 0
BITMAP
8000
c000
3000
0c00
0300
00c0
0300
0c00
3000
c000
8000
ENDCHAR
STARTCHAR question
ENCODING 63
SWIDTH 505 0
DWIDTH 9 0
BBX 7 13 1 0
BITMAP
f8
ce
86
06
04
08
10
10
30
00
00
30
30
ENDCHAR
STARTCHAR at
ENCODING 64
SWIDTH 861 0
DWIDTH 15 0
BBX 13 13 1 0
BITMAP
07c0
1830
3010
6708
4888
8988
9188
9318
9730
9de0
4000
6100
1e00
ENDCHAR
STARTCHAR A
ENCODING 65
SWIDTH 795 0
DWIDTH 14 0
BBX 14 13 0 0
BITMAP
0200
0300
0700
0580
0d80
09c0
08c0
10e0
1fe0
2070
2030
4038
e07c
ENDCHAR
STARTCHAR B
ENCODING 66
SWIDTH 639 0
DWIDTH 11 0
BBX 9 13 1 0
BITMAP
ff00
6380
6180
6180
6180
6300
7e00
6300
6180
6180
6180
6380
fe00
ENDCHAR
STARTCHAR C
ENCODING 67
SWIDTH 711 0
DWIDTH 12 0
BBX 11 13 0 0
BITMAP
0fe0
3060
6020
6000
c000
c000
c000
c000
c000
6000
6000
3820
0fc0
ENDCHAR
STARTCHAR D
ENCODING 68
SWIDTH 794 0
DWIDTH 13 0
BBX 12 13 1 0
BITMAP
ff80
60c0
6060
6030
6030
6030
6030
6030
6030
6020
6060
60c0
ff80
ENDCHAR
STARTCHAR E
ENCODING 69
SWIDTH 601 0
DWIDTH 10 0
BBX 9 13 1 0
BITMAP
ff00
6100
6000
6000
6000
6200
7e00
6200
6000
6000
6000
6080
ff80
ENDCHAR
STARTCHAR F
ENCODING 70
SWIDTH 584 0
DWIDTH 10 0
BBX 8 13 1 0
BITMAP
ff
61
60
60
60
62
7e
62
60
60
60
60
f8
ENDCHAR
STARTCHAR G
ENCODING 71
SWIDTH 753 0
DWIDTH 13 0
BBX 12 13 1 0
BITMAP
0fe0
3860
6020
6000
c000
c000
c000
c0f0
c060
6060
6060
3860
0fe0
ENDCHAR
STARTCHAR H
ENCODING 72
SWIDTH 798 0
DWIDTH 14 0
BBX 12 13 1 0
BITMAP
f0f0
6060
6060
6060
6060
6060
7fe0
6060
6060
6060
6060
6060
f0f0
ENDCHAR
STARTCHAR I
ENCODING 73
SWIDTH 349 0
DWIDTH 6 0
BBX 4 13 1 0
BITMAP
f0
60
60
60
60
60
60
60
60
60
60
60
f0
ENDCHAR
STARTCHAR J
ENCODING 74
SWIDTH 452 0
DWIDTH 8 0
BBX 7 16 0 -3
BITMAP
1e
0c
0c
0c
0c
0c
0c
0c
0c
0c
0c
0c
0c
8c
88
f0
ENDCHAR
STARTCHAR K
ENCODING 75
SWIDTH 747 0
DWIDTH 13 0
BBX 12 13 1 0
BITMAP
f1e0
60c0
6100
6200
6400
7800
7800
6c00
6600
6300
6380
61c0
f3f0
ENDCHAR
STARTCHAR L
ENCODING 76
SWIDTH 584 0
DWIDTH 10 0
BBX 9 13 1 0
BITMAP
f000
6000
6000
6000
6000
6000
6000
6000
6000
6000
6080
6080
ff80
ENDCHAR
STARTCHAR M
ENCODING 77
SWIDTH 904 0
DWIDTH 15 0
BBX 14 13 1 0
BITMAP
f03c
7038
7838
5878
5858
4cd8
4c98
4698
4718
4718
4218
4018
e03c
ENDCHAR
STARTCHAR N
ENCODING 78
SWIDTH 788 0
DWIDTH 13 0
BBX 12 13 1 0
BITMAP
e070
7020
7020
5820
5c20
4e20
4620
4320
43a0
41a0
40e0
4060
e060
ENDCHAR
STARTCHAR O
ENCODING 79
SWIDTH 810 0
DWIDTH 14 0
BBX 12 13 1 0
BITMAP
1f80
30c0
6060
6060
c030
c030
c030
c030
c030
6060
6060
30c0
1f80
ENDCHAR
STARTCHAR P
ENCODING 80
SWIDTH 614 0
DWIDTH 10 0
BBX 9 13 1 0
BITMAP
ff00
6380
6180
6180
6180
6180
6300
7c00
6000
6000
6000
6000
f800
ENDCHAR
STARTCHAR Q
ENCODING 81
SWIDTH 810 0
DWIDTH 14 0
BBX 14 16 1 -3
BITMAP
1f80
30c0
6060
6060
c030
c030
c030
c030
c030
6070
6060
30e0
1f80
00e0
0078
001c
ENDCHAR
STARTCHAR R
ENCODING 82
SWIDTH 720 0
DWIDTH 12 0
BBX 11 13 1 0
BITMAP
ff00
6380
6180
6180
6180
6300
7f00
6600
6700
6300
6380
6180
f0e0
ENDCHAR
STARTCHAR S
ENCODING 83
SWIDTH 556 0
DWIDTH 9 0
BBX 8 13 1 0
BITMAP
3e
62
c2
c0
e0
78
3c
0e
03
03
83
c6
fc
ENDCHAR
STARTCHAR T
ENCODING 84
SWIDTH 714 0
DWIDTH 12 0
BBX 10 13 1 0
BITMAP
ffc0
8c40
0c00
0c00
0c00
0c00
0c00
0c00
0c00
0c00
0c00
0c00
3f00
ENDCHAR
STARTCHAR U
ENCODING 85
SWIDTH 747 0
DWIDTH 13 0
BBX 12 13 0 0
BITMAP
f070
6020
6020
6020
6020
6020
6020
6020
6020
6020
6020
3040
1f80
ENDCHAR
STARTCHAR V
ENCODING 86
SWIDTH 753 0
DWIDTH 13 0
BBX 13 13 0 0
BITMAP
f878
7010
3020
3820
1860
1c40
0c40
0c80
0680
0780
0700
0300
0200
ENDCHAR
STARTCHAR W
ENCODING 87
SWIDTH 955 0
DWIDTH 16 0
BBX 16 13 0 0
BITMAP
f887
7082
31c4
31c4
31c4
3ac4
1a68
1a68
1c68
1c30
0c30
0c30
0830
ENDCHAR
STARTCHAR X
ENCODING 88
SWIDTH 702 0
DWIDTH 12 0
BBX 12 13 0 0
BITMAP
fc70
3860
1840
1880
0d80
0f00
0600
0b00
1380
1180
21c0
60e0
f1f0
ENDCHAR
STARTCHAR Y
ENCODING 89
SWIDTH 717 0
DWIDTH 12 0
BBX 12 13 0 0
BITMAP
fcf0
7020
3840
18c0
0c80
0d00
0700
0600
0600
0600
0600
0600
0f00
ENDCHAR
STARTCHAR Z
ENCODING 90
SWIDTH 639 0
DWIDTH 11 0
BBX 9 13 1 0
BITMAP
ff80
c300
8300
0600
0e00
0c00
1c00
1800
3800
3000
6080
6080
ff80
ENDCHAR
STARTCHAR bracketleft
ENCODING 91
SWIDTH 327 0
DWIDTH 6 0
BBX 4 16 1 -3
BITMAP
f0
c0
c0
c0
c0
c0
c0
c0
c0
c0
c0
c0
c0
c0
c0
f0
ENDCHAR
STARTCHAR backslash
ENCODING 92
SWIDTH 527 0
DWIDTH 9 0
BBX 9 16 0 -3
BITMAP
c000
4000
4000
2000
2000
1000
1000
0800
0800
0400
0400
0200
0200
0100
0100
0080
ENDCHAR
STARTCHAR bracketright
ENCODING 93
SWIDTH 327 0
DWIDTH 6 0
BBX 4 16 1 -3
BITMAP
f0
30
30
30
30
30
30
30
30
30
30
30
30
30
30
f0
ENDCHAR
STARTCHAR asciicircum
ENCODING 94
SWIDTH 623 0
DWIDTH 11 0
BBX 10 11 0 2
BITMAP
0400
0c00
0c00
0c00
1200
1200
2100
2100
4080
4080
8040
ENDCHAR
STARTCHAR underscore
ENCODING 95
SWIDTH 500 0
DWIDTH 8 0
BBX 7 1 1 -1
BITMAP
fe
ENDCHAR
STARTCHAR grave
ENCODING 96
SWIDTH 617 0
DWIDTH 10 0
BBX 4 2 3 11
BITMAP
e0
30
ENDCHAR
STARTCHAR a
ENCODING 97
SWIDTH 556 0
DWIDTH 9 0
BBX 8 9 1 0
BITMAP
7c
46
46
06
7e
e6
c6
c6
7f
ENDCHAR
STARTCHAR b
ENCODING 98
SWIDTH 640 0
DWIDTH 11 0
BBX 10 13 0 0
BITMAP
e000
6000
6000
6000
6f00
7180
60c0
60c0
60c0
60c0
60c0
7180
6f00
ENDCHAR
STARTCHAR c
ENCODING 99
SWIDTH 541 0
DWIDTH 9 0
BBX 8 9 0 0
BITMAP
3f
61
c1
c0
c0
c0
c0
60
3f
ENDCHAR
STARTCHAR d
ENCODING 100
SWIDTH 652 0
DWIDTH 11 0
BBX 10 13 1 0
BITMAP
0380
0180
0180
0180
3d80
6380
c180
c180
c180
c180
c180
6380
3dc0
ENDCHAR
STARTCHAR e
ENCODING 101
SWIDTH 568 0
DWIDTH 10 0
BBX 8 9 1 0
BITMAP
3c
62
c3
c3
ff
c0
c0
61
3f
ENDCHAR
STARTCHAR f
ENCODING 102
SWIDTH 416 0
DWIDTH 7 0
BBX 6 13 1 0
BITMAP
3c
64
64
60
f8
60
60
60
60
60
60
60
f0
ENDCHAR
STARTCHAR g
ENCODING 103
SWIDTH 599 0
DWIDTH 10 0
BBX 10 12 0 -3
BITMAP
1fc0
63c0
6300
6300
6300
3e00
2000
6000
3f80
c180
c380
7e00
ENDCHAR
STARTCHAR h
ENCODING 104
SWIDTH 654 0
DWIDTH 11 0
BBX 10 13 1 0
BITMAP
e000
6000
6000
6000
6f00
7180
6180
6180
6180
6180
6180
6180
f3c0
ENDCHAR
STARTCHAR i
ENCODING 105
SWIDTH 325 0
DWIDTH 6 0
BBX 4 13 1 0
BITMAP
60
60
00
00
e0
60
60
60
60
60
60
60
f0
ENDCHAR
STARTCHAR j
ENCODING 106
SWIDTH 355 0
DWIDTH 6 0
BBX 6 16 0 -3
BITMAP
0c
0c
00
00
3c
0c
0c
0c
0c
0c
0c
0c
0c
8c
8c
f8
ENDCHAR
STARTCHAR k
ENCODING 107
SWIDTH 654 0
DWIDTH 11 0
BBX 11 13 0 0
BITMAP
e000
6000
6000
6000
63c0
6180
6600
6c00
7c00
6e00
6700
6380
f1e0
ENDCHAR
STARTCHAR l
ENCODING 108
SWIDTH 325 0
DWIDTH 6 0
BBX 4 13 1 0
BITMAP
e0
60
60
60
60
60
60
60
60
60
60
60
f0
ENDCHAR
STARTCHAR m
ENCODING 109
SWIDTH 967 0
DWIDTH 16 0
BBX 16 9 0 0
BITMAP
ef3c
71c6
6186
6186
6186
6186
6186
6186
f3cf
ENDCHAR
STARTCHAR n
ENCODING 110
SWIDTH 654 0
DWIDTH 11 0
BBX 10 9 1 0
BITMAP
ef00
7180
6180
6180
6180
6180
6180
6180
f3c0
ENDCHAR
STARTCHAR o
ENCODING 111
SWIDTH 617 0
DWIDTH 10 0
BBX 9 9 1 0
BITMAP
3e00
6300
c180
c180
c180
c180
c180
6300
3e00
ENDCHAR
STARTCHAR p
ENCODING 112
SWIDTH 652 0
DWIDTH 11 0
BBX 10 12 0 -3
BITMAP
ef00
7180
60c0
60c0
60c0
60c0
60c0
7180
6f00
6000
6000
f000
ENDCHAR
STARTCHAR q
ENCODING 113
SWIDTH 640 0
DWIDTH 11 0
BBX 10 12 1 -3
BITMAP
3d80
6380
c180
c180
c180
c180
c180
6380
3d80
0180
0180
03c0
ENDCHAR
STARTCHAR r
ENCODING 114
SWIDTH 462 0
DWIDTH 8 0
BBX 6 9 1 0
BITMAP
ec
74
64
60
60
60
60
60
f8
ENDCHAR
STARTCHAR s
ENCODING 115
SWIDTH 525 0
DWIDTH 9 0
BBX 7 9 1 0
BITMAP
7c
c4
c4
f0
7c
1e
86
86
fc
ENDCHAR
STARTCHAR t
ENCODING 116
SWIDTH 389 0
DWIDTH 7 0
BBX 5 12 1 0
BITMAP
60
60
60
f8
60
60
60
60
60
60
60
38
ENDCHAR
STARTCHAR u
ENCODING 117
SWIDTH 654 0
DWIDTH 11 0
BBX 10 9 0 0
BITMAP
e380
6180
6180
6180
6180
6180
6180
6380
3dc0
ENDCHAR
STARTCHAR v
ENCODING 118
SWIDTH 657 0
DWIDTH 11 0
BBX 11 9 0 0
BITMAP
f8e0
7040
3080
1880
1900
0d00
0e00
0600
0400
ENDCHAR
STARTCHAR w
ENCODING 119
SWIDTH 880 0
DWIDTH 15 0
BBX 15 9 0 0
BITMAP
f98e
7184
31c8
32c8
3ad8
1c70
1c70
0c60
0820
ENDCHAR
STARTCHAR x
ENCODING 120
SWIDTH 608 0
DWIDTH 10 0
BBX 10 9 0 0
BITMAP
fbc0
7180
3b00
1e00
0c00
1600
3700
6380
e7c0
ENDCHAR
STARTCHAR y
ENCODING 121
SWIDTH 654 0
DWIDTH 11 0
BBX 11 12 0 -3
BITMAP
f8e0
7040
3080
1880
1900
1f00
0e00
0c00
0400
0800
1800
3000
ENDCHAR
STARTCHAR z
ENCODING 122
SWIDTH 584 0
DWIDTH 10 0
BBX 8 9 1 0
BITMAP
ff
86
0e
1c
18
30
70
61
ff
ENDCHAR
STARTCHAR braceleft
ENCODING 123
SWIDTH 366 0
DWIDTH 6 0
BBX 4 16 1 -3
BITMAP
30
60
60
60
60
60
60
c0
40
60
60
60
60
60
60
30
ENDCHAR
STARTCHAR bar
ENCODING 124
SWIDTH 259 0
DWIDTH 4 0
BBX 1 16 2 -3
BITMAP
80
80
80
80
80
80
80
80
80
80
80
80
80
80
80
80
ENDCHAR
STARTCHAR braceright
ENCODING 125
SWIDTH 366 0
DWIDTH 6 0
BBX 4 16 1 -3
BITMAP
c0
60
60
60
60
60
60
30
20
60
60
60
60
60
60
c0
ENDCHAR
STARTCHAR asciitilde
ENCODING 126
SWIDTH 623 0
DWIDTH 11 0
BBX 10 4 0 3
BITMAP
7040
8840
8440
8380
ENDCHAR
STARTCHAR nobreakspace
ENCODING 160
SWIDTH 333 0
DWIDTH 6 0
BBX 1 1 0 0
BITMAP
00
ENDCHAR
STARTCHAR Aogonek
ENCODING 161
SWIDTH 795 0
DWIDTH 14 0
BBX 14 15 0 -2
BITMAP
0200
0300
0700
0580
0d80
09c0
08c0
10e0
1fe0
2070
2030
4038
e07c
0600
0700
ENDCHAR
STARTCHAR breve
ENCODING 162
SWIDTH 617 0
DWIDTH 10 0
BBX 6 2 2 11
BITMAP
84
78
ENDCHAR
STARTCHAR Lstroke
ENCODING 163
SWIDTH 584 0
DWIDTH 10 0
BBX 10 13 0 0
BITMAP
f800
3000
3000
3000
3400
3800
7000
b000
3000
3000
3040
3040
ffc0
ENDCHAR
STARTCHAR currency
ENCODING 164
SWIDTH 623 0
DWIDTH 11 0
BBX 11 11 0 1
BITMAP
8020
4040
3f80
3180
2080
2080
2080
3180
3f80
4040
8020
ENDCHAR
STARTCHAR Lcaron
ENCODING 165
SWIDTH 584 0
DWIDTH 10 0
BBX 9 14 1 0
BITMAP
0700
f700
6100
6100
6600
6000
6000
6000
6000
6000
6000
6080
6080
ff80
ENDCHAR
STARTCHAR Sacute
ENCODING 166
SWIDTH 556 0
DWIDTH 9 0
BBX 8 16 1 0
BITMAP
0e
18
00
3e
62
c2
c0
e0
78
3c
0e
03
03
83
c6
fc
ENDCHAR
STARTCHAR section
ENCODING 167
SWIDTH 623 0
DWIDTH 11 0
BBX 8 16 1 -3
BITMAP
3e
e2
c2
c0
f0
7c
9f
83
c1
f9
3e
0f
03
83
c7
fc
ENDCHAR
STARTCHAR diaeresis
ENCODING 168
SWIDTH 617 0
DWIDTH 10 0
BBX 5 1 3 12
BITMAP
d8
ENDCHAR
STARTCHAR Scaron
ENCODING 169
SWIDTH 556 0
DWIDTH 9 0
BBX 8 16 1 0
BITMAP
66
3c
00
3e
62
c2
c0
e0
78
3c
0e
03
03
83
c6
fc
ENDCHAR
STARTCHAR Scedilla
ENCODING 170
SWIDTH 556 0
DWIDTH 9 0
BBX 8 16 1 -3
BITMAP
3e
62
c2
c0
e0
78
3c
0e
03
03
83
c6
fc
30
08
38
ENDCHAR
STARTCHAR Tcaron
ENCODING 171
SWIDTH 714 0
DWIDTH 12 0
BBX 10 16 1 0
BITMAP
3300
1e00
0000
ffc0
8c40
0c00
0c00
0c00
0c00
0c00
0c00
0c00
0c00
0c00
0c00
3f00
ENDCHAR
STARTCHAR Zacute
ENCODING 172
SWIDTH 639 0
DWIDTH 11 0
BBX 9 16 1 0
BITMAP
0700
0c00
0000
ff80
c300
8300
0600
0e00
0c00
1c00
1800
3800
3000
6080
6080
ff80
ENDCHAR
STARTCHAR hyphen
ENCODING 173
SWIDTH 289 0
DWIDTH 5 0
BBX 4 1 0 5
BITMAP
f0
ENDCHAR
STARTCHAR Zcaron
ENCODING 174
SWIDTH 639 0
DWIDTH 11 0
BBX 9 16 1 0
BITMAP
3300
1e00
0000
ff80
c300
8300
0600
0e00
0c00
1c00
1800
3800
3000
6080
6080
ff80
ENDCHAR
STARTCHAR Zabovedot
ENCODING 175
SWIDTH 639 0
DWIDTH 11 0
BBX 9 16 1 0
BITMAP
0c00
0c00
0000
ff80
c300
8300
0600
0e00
0c00
1c00
1800
3800
3000
6080
6080
ff80
ENDCHAR
STARTCHAR degree
ENCODING 176
SWIDTH 259 0
DWIDTH 4 0
BBX 3 4 1 9
BITMAP
40
a0
a0
40
ENDCHAR
STARTCHAR aogonek
ENCODING 177
SWIDTH 556 0
DWIDTH 9 0
BBX 8 11 1 -2
BITMAP
7c
46
46
06
7e
e6
c6
c6
7f
30
38
ENDCHAR
STARTCHAR ogonek
ENCODING 178
SWIDTH 617 0
DWIDTH 10 0
BBX 3 2 4 -3
BITMAP
c0
e0
ENDCHAR
STARTCHAR lstroke
ENCODING 179
SWIDTH 325 0
DWIDTH 6 0
BBX 6 13 0 0
BITMAP
f0
30
30
30
30
3c
30
f0
30
30
30
30
fc
ENDCHAR
STARTCHAR acute
ENCODING 180
SWIDTH 617 0
DWIDTH 10 0
BBX 4 2 4 11
BITMAP
70
c0
ENDCHAR
STARTCHAR lcaron
ENCODING 181
SWIDTH 540 0
DWIDTH 9 0
BBX 7 14 1 0
BITMAP
0e
ee
62
62
6c
60
60
60
60
60
60
60
60
f0
ENDCHAR
STARTCHAR sacute
ENCODING 182
SWIDTH 525 0
DWIDTH 9 0
BBX 7 12 1 0
BITMAP
1c
30
00
7c
c4
c4
f0
7c
1e
86
86
fc
ENDCHAR
STARTCHAR caron
ENCODING 183
SWIDTH 617 0
DWIDTH 10 0
BBX 6 2 2 11
BITMAP
cc
78
ENDCHAR
STARTCHAR cedilla
ENCODING 184
SWIDTH 617 0
DWIDTH 10 0
BBX 3 3 4 -3
BITMAP
c0
20
e0
ENDCHAR
STARTCHAR scaron
ENCODING 185
SWIDTH 525 0
DWIDTH 9 0
BBX 7 12 1 0
BITMAP
cc
78
00
7c
c4
c4
f0
7c
1e
86
86
fc
ENDCHAR
STARTCHAR scedilla
ENCODING 186
SWIDTH 525 0
DWIDTH 9 0
BBX 7 12 1 -3
BITMAP
7c
c4
c4
f0
7c
1e
86
86
fc
30
08
38
ENDCHAR
STARTCHAR tcaron
ENCODING 187
SWIDTH 540 0
DWIDTH 9 0
BBX 7 15 1 0
BITMAP
0e
0e
02
62
6c
60
f8
60
60
60
60
60
60
60
38
ENDCHAR
STARTCHAR zacute
ENCODING 188
SWIDTH 584 0
DWIDTH 10 0
BBX 8 12 1 0
BITMAP
0e
18
00
ff
86
0e
1c
18
30
70
61
ff
ENDCHAR
STARTCHAR doubleacute
ENCODING 189
SWIDTH 617 0
DWIDTH 10 0
BBX 6 2 3 11
BITMAP
6c
b0
ENDCHAR
STARTCHAR zcaron
ENCODING 190
SWIDTH 584 0
DWIDTH 10 0
BBX 8 12 1 0
BITMAP
66
3c
00
ff
86
0e
1c
18
30
70
61
ff
ENDCHAR
STARTCHAR zabovedot
ENCODING 191
SWIDTH 584 0
DWIDTH 10 0
BBX 8 12 1 0
BITMAP
18
18
00
ff
86
0e
1c
18
30
70
61
ff
ENDCHAR
STARTCHAR Racute
ENCODING 192
SWIDTH 720 0
DWIDTH 12 0
BBX 11 16 1 0
BITMAP
0700
0c00
0000
ff00
6380
6180
6180
6180
6300
7f00
6600
6700
6300
6380
6180
f0e0
ENDCHAR
STARTCHAR Aacute
ENCODING 193
SWIDTH 795 0
DWIDTH 14 0
BBX 14 16 0 0
BITMAP
01c0
0300
0000
0200
0300
0700
0580
0d80
09c0
08c0
10e0
1fe0
2070
2030
4038
e07c
ENDCHAR
STARTCHAR Acircumflex
ENCODING 194
SWIDTH 795 0
DWIDTH 14 0
BBX 14 16 0 0
BITMAP
0780
0cc0
0000
0200
0300
0700
0580
0d80
09c0
08c0
10e0
1fe0
2070
2030
4038
e07c
ENDCHAR
STARTCHAR Abreve
ENCODING 195
SWIDTH 795 0
DWIDTH 14 0
BBX 14 16 0 0
BITMAP
0840
0780
0000
0200
0300
0700
0580
0d80
09c0
08c0
10e0
1fe0
2070
2030
4038
e07c
ENDCHAR
STARTCHAR Adiaeresis
ENCODING 196
SWIDTH 795 0
DWIDTH 14 0
BBX 14 15 0 0
BITMAP
06c0
0000
0200
0300
0700
0580
0d80
09c0
08c0
10e0
1fe0
2070
2030
4038
e07c
ENDCHAR
STARTCHAR Lacute
ENCODING 197
SWIDTH 584 0
DWIDTH 10 0
BBX 9 16 1 0
BITMAP
3800
6000
0000
f000
6000
6000
6000
6000
6000
6000
6000
6000
6000
6080
6080
ff80
ENDCHAR
STARTCHAR Cacute
ENCODING 198
SWIDTH 711 0
DWIDTH 12 0
BBX 11 16 0 0
BITMAP
0380
0600
0000
0fe0
3060
6020
6000
c000
c000
c000
c000
c000
6000
6000
3820
0fc0
ENDCHAR
STARTCHAR Ccedilla
ENCODING 199
SWIDTH 711 0
DWIDTH 12 0
BBX 11 16 0 -3
BITMAP
0fe0
3060
6020
6000
c000
c000
c000
c000
c000
6000
6000
3820
0fc0
0400
0200
0e00
ENDCHAR
STARTCHAR Ccaron
ENCODING 200
SWIDTH 711 0
DWIDTH 12 0
BBX 11 16 0 0
BITMAP
1980
0f00
0000
0fe0
3060
6020
6000
c000
c000
c000
c000
c000
6000
6000
3820
0fc0
ENDCHAR
STARTCHAR Eacute
ENCODING 201
SWIDTH 601 0
DWIDTH 10 0
BBX 9 16 1 0
BITMAP
0e00
1800
0000
ff00
6100
6000
6000
6000
6200
7e00
6200
6000
6000
6000
6080
ff80
ENDCHAR
STARTCHAR Eogonek
ENCODING 202
SWIDTH 601 0
DWIDTH 10 0
BBX 9 15 1 -2
BITMAP
ff00
6100
6000
6000
6000
6200
7e00
6200
6000
6000
6000
6080
ff80
1800
1c00
ENDCHAR
STARTCHAR Ediaeresis
ENCODING 203
SWIDTH 601 0
DWIDTH 10 0
BBX 9 15 1 0
BITMAP
3600
0000
ff00
6100
6000
6000
6000
6200
7e00
6200
6000
6000
6000
6080
ff80
ENDCHAR
STARTCHAR Ecaron
ENCODING 204
SWIDTH 601 0
DWIDTH 10 0
BBX 9 16 1 0
BITMAP
6600
3c00
0000
ff00
6100
6000
6000
6000
6200
7e00
6200
6000
6000
6000
6080
ff80
ENDCHAR
STARTCHAR Iacute
ENCODING 205
SWIDTH 349 0
DWIDTH 6 0
BBX 5 16 1 0
BITMAP
38
60
00
f0
60
60
60
60
60
60
60
60
60
60
60
f0
ENDCHAR
STARTCHAR Icircumflex
ENCODING 206
SWIDTH 349 0
DWIDTH 6 0
BBX 6 16 2 0
BITMAP
78
cc
00
78
30
30
30
30
30
30
30
30
30
30
30
78
ENDCHAR
STARTCHAR Dcaron
ENCODING 207
SWIDTH 794 0
DWIDTH 13 0
BBX 12 16 1 0
BITMAP
1980
0f00
0000
ff80
60c0
6060
6030
6030
6030
6030
6030
6030
6020
6060
60c0
ff80
ENDCHAR
STARTCHAR Dstroke
ENCODING 208
SWIDTH 794 0
DWIDTH 13 0
BBX 13 13 0 0
BITMAP
ffc0
3060
3030
3018
3018
3018
fe18
3018
3018
3010
3030
3060
ffc0
ENDCHAR
STARTCHAR Nacute
ENCODING 209
SWIDTH 788 0
DWIDTH 13 0
BBX 12 16 1 0
BITMAP
0380
0600
0000
e070
7020
7020
5820
5c20
4e20
4620
4320
43a0
41a0
40e0
4060
e060
ENDCHAR
STARTCHAR Ncaron
ENCODING 210
SWIDTH 788 0
DWIDTH 13 0
BBX 12 16 1 0
BITMAP
1980
0f00
0000
e070
7020
7020
5820
5c20
4e20
4620
4320
43a0
41a0
40e0
4060
e060
ENDCHAR
STARTCHAR Oacute
ENCODING 211
SWIDTH 810 0
DWIDTH 14 0
BBX 12 16 1 0
BITMAP
0380
0600
0000
1f80
30c0
6060
6060
c030
c030
c030
c030
c030
6060
6060
30c0
1f80
ENDCHAR
STARTCHAR Ocircumflex
ENCODING 212
SWIDTH 810 0
DWIDTH 14 0
BBX 12 16 1 0
BITMAP
0f00
1980
0000
1f80
30c0
6060
6060
c030
c030
c030
c030
c030
6060
6060
30c0
1f80
ENDCHAR
STARTCHAR Odoubleacute
ENCODING 213
SWIDTH 810 0
DWIDTH 14 0
BBX 12 16 1 0
BITMAP
06c0
0b00
0000
1f80
30c0
6060
6060
c030
c030
c030
c030
c030
6060
6060
30c0
1f80
ENDCHAR
STARTCHAR Odiaeresis
ENCODING 214
SWIDTH 810 0
DWIDTH 14 0
BBX 12 15 1 0
BITMAP
1b00
0000
1f80
30c0
6060
6060
c030
c030
c030
c030
c030
6060
6060
30c0
1f80
ENDCHAR
STARTCHAR multiply
ENCODING 215
SWIDTH 623 0
DWIDTH 11 0
BBX 10 11 0 0
BITMAP
8040
40c0
2100
1300
1e00
0c00
1e00
3200
2100
c080
8040
ENDCHAR
STARTCHAR Rcaron
ENCODING 216
SWIDTH 720 0
DWIDTH 12 0
BBX 11 16 1 0
BITMAP
3300
1e00
0000
ff00
6380
6180
6180
6180
6300
7f00
6600
6700
6300
6380
6180
f0e0
ENDCHAR
STARTCHAR Uring
ENCODING 217
SWIDTH 747 0
DWIDTH 13 0
BBX 12 16 0 0
BITMAP
0e00
0e00
0000
f070
6020
6020
6020
6020
6020
6020
6020
6020
6020
6020
3040
1f80
ENDCHAR
STARTCHAR Uacute
ENCODING 218
SWIDTH 747 0
DWIDTH 13 0
BBX 12 16 0 0
BITMAP
0380
0600
0000
f070
6020
6020
6020
6020
6020
6020
6020
6020
6020
6020
3040
1f80
ENDCHAR
STARTCHAR Udoubleacute
ENCODING 219
SWIDTH 747 0
DWIDTH 13 0
BBX 12 16 0 0
BITMAP
06c0
0b00
0000
f070
6020
6020
6020
6020
6020
6020
6020
6020
6020
6020
3040
1f80
ENDCHAR
STARTCHAR Udiaeresis
ENCODING 220
SWIDTH 747 0
DWIDTH 13 0
BBX 12 15 0 0
BITMAP
0d80
0000
f070
6020
6020
6020
6020
6020
6020
6020
6020
6020
6020
3040
1f80
ENDCHAR
STARTCHAR Yacute
ENCODING 221
SWIDTH 717 0
DWIDTH 12 0
BBX 12 16 0 0
BITMAP
0380
0600
0000
fcf0
7020
3840
18c0
0c80
0d00
0700
0600
0600
0600
0600
0600
0f00
ENDCHAR
STARTCHAR Tcedilla
ENCODING 222
SWIDTH 714 0
DWIDTH 12 0
BBX 10 16 1 -3
BITMAP
ffc0
8c40
0c00
0c00
0c00
0c00
0c00
0c00
0c00
0c00
0c00
0c00
3f00
1800
0400
1c00
ENDCHAR
STARTCHAR ssharp
ENCODING 223
SWIDTH 700 0
DWIDTH 12 0
BBX 10 13 1 0
BITMAP
3e00
6300
6300
6200
6400
6c00
6e00
6700
6380
61c0
60c0
64c0
f780
ENDCHAR
STARTCHAR racute
ENCODING 224
SWIDTH 462 0
DWIDTH 8 0
BBX 6 12 1 0
BITMAP
1c
30
00
ec
74
64
60
60
60
60
60
f8
ENDCHAR
STARTCHAR aacute
ENCODING 225
SWIDTH 556 0
DWIDTH 9 0
BBX 8 12 1 0
BITMAP
1c
30
00
7c
46
46
06
7e
e6
c6
c6
7f
ENDCHAR
STARTCHAR acircumflex
ENCODING 226
SWIDTH 556 0
DWIDTH 9 0
BBX 8 12 1 0
BITMAP
3c
66
00
7c
46
46
06
7e
e6
c6
c6
7f
ENDCHAR
STARTCHAR abreve
ENCODING 227
SWIDTH 556 0
DWIDTH 9 0
BBX 8 12 1 0
BITMAP
42
3c
00
7c
46
46
06
7e
e6
c6
c6
7f
ENDCHAR
STARTCHAR adiaeresis
ENCODING 228
SWIDTH 556 0
DWIDTH 9 0
BBX 8 11 1 0
BITMAP
6c
00
7c
46
46
06
7e
e6
c6
c6
7f
ENDCHAR
STARTCHAR lacute
ENCODING 229
SWIDTH 325 0
DWIDTH 6 0
BBX 5 16 1 0
BITMAP
38
60
00
e0
60
60
60
60
60
60
60
60
60
60
60
f0
ENDCHAR
STARTCHAR cacute
ENCODING 230
SWIDTH 541 0
DWIDTH 9 0
BBX 8 12 0 0
BITMAP
07
0c
00
3f
61
c1
c0
c0
c0
c0
60
3f
ENDCHAR
STARTCHAR ccedilla
ENCODING 231
SWIDTH 541 0
DWIDTH 9 0
BBX 8 12 0 -3
BITMAP
3f
61
c1
c0
c0
c0
c0
60
3f
08
04
1c
ENDCHAR
STARTCHAR ccaron
ENCODING 232
SWIDTH 541 0
DWIDTH 9 0
BBX 8 12 0 0
BITMAP
33
1e
00
3f
61
c1
c0
c0
c0
c0
60
3f
ENDCHAR
STARTCHAR eacute
ENCODING 233
SWIDTH 568 0
DWIDTH 10 0
BBX 8 12 1 0
BITMAP
0e
18
00
3c
62
c3
c3
ff
c0
c0
61
3f
ENDCHAR
STARTCHAR eogonek
ENCODING 234
SWIDTH 568 0
DWIDTH 10 0
BBX 8 11 1 -2
BITMAP
3c
62
c3
c3
ff
c0
c0
61
3f
30
38
ENDCHAR
STARTCHAR ediaeresis
ENCODING 235
SWIDTH 568 0
DWIDTH 10 0
BBX 8 11 1 0
BITMAP
36
00
3c
62
c3
c3
ff
c0
c0
61
3f
ENDCHAR
STARTCHAR ecaron
ENCODING 236
SWIDTH 568 0
DWIDTH 10 0
BBX 8 12 1 0
BITMAP
66
3c
00
3c
62
c3
c3
ff
c0
c0
61
3f
ENDCHAR
STARTCHAR iacute
ENCODING 237
SWIDTH 325 0
DWIDTH 6 0
BBX 4 12 1 0
BITMAP
70
c0
00
e0
60
60
60
60
60
60
60
f0
ENDCHAR
STARTCHAR icircumflex
ENCODING 238
SWIDTH 325 0
DWIDTH 6 0
BBX 6 12 2 0
BITMAP
78
cc
00
70
30
30
30
30
30
30
30
78
ENDCHAR
STARTCHAR dcaron
ENCODING 239
SWIDTH 840 0
DWIDTH 14 0
BBX 13 14 1 0
BITMAP
0038
03b8
0188
0188
01b0
3d80
6380
c180
c180
c180
c180
c180
6380
3dc0
ENDCHAR
STARTCHAR dstroke
ENCODING 240
SWIDTH 780 0
DWIDTH 13 0
BBX 12 13 1 0
BITMAP
0380
0180
0ff0
0180
3d80
6380
c180
c180
c180
c180
c180
6380
3dc0
ENDCHAR
STARTCHAR nacute
ENCODING 241
SWIDTH 654 0
DWIDTH 11 0
BBX 10 12 1 0
BITMAP
0700
0c00
0000
ef00
7180
6180
6180
6180
6180
6180
6180
f3c0
ENDCHAR
STARTCHAR ncaron
ENCODING 242
SWIDTH 654 0
DWIDTH 11 0
BBX 10 12 1 0
BITMAP
3300
1e00
0000
ef00
7180
6180
6180
6180
6180
6180
6180
f3c0
ENDCHAR
STARTCHAR oacute
ENCODING 243
SWIDTH 617 0
DWIDTH 10 0
BBX 9 12 1 0
BITMAP
0e00
1800
0000
3e00
6300
c180
c180
c180
c180
c180
6300
3e00
ENDCHAR
STARTCHAR ocircumflex
ENCODING 244
SWIDTH 617 0
DWIDTH 10 0
BBX 9 12 1 0
BITMAP
3c00
6600
0000
3e00
6300
c180
c180
c180
c180
c180
6300
3e00
ENDCHAR
STARTCHAR odoubleacute
ENCODING 245
SWIDTH 617 0
DWIDTH 10 0
BBX 9 12 1 0
BITMAP
0d80
1600
0000
3e00
6300
c180
c180
c180
c180
c180
6300
3e00
ENDCHAR
STARTCHAR odiaeresis
ENCODING 246
SWIDTH 617 0
DWIDTH 10 0
BBX 9 11 1 0
BITMAP
3600
0000
3e00
6300
c180
c180
c180
c180
c180
6300
3e00
ENDCHAR
STARTCHAR division
ENCODING 247
SWIDTH 623 0
DWIDTH 11 0
BBX 9 9 1 0
BITMAP
0800
0000
0000
0000
ff80
0000
0000
0000
0800
ENDCHAR
STARTCHAR rcaron
ENCODING 248
SWIDTH 462 0
DWIDTH 8 0
BBX 6 12 1 0
BITMAP
cc
78
00
ec
74
64
60
60
60
60
60
f8
ENDCHAR
STARTCHAR uring
ENCODING 249
SWIDTH 654 0
DWIDTH 11 0
BBX 10 12 0 0
BITMAP
1c00
1c00
0000
e380
6180
6180
6180
6180
6180
6180
6380
3dc0
ENDCHAR
STARTCHAR uacute
ENCODING 250
SWIDTH 654 0
DWIDTH 11 0
BBX 10 12 0 0
BITMAP
0700
0c00
0000
e380
6180
6180
6180
6180
6180
6180
6380
3dc0
ENDCHAR
STARTCHAR udoubleacute
ENCODING 251
SWIDTH 654 0
DWIDTH 11 0
BBX 10 12 0 0
BITMAP
0d80
1600
0000
e380
6180
6180
6180
6180
6180
6180
6380
3dc0
ENDCHAR
STARTCHAR udiaeresis
ENCODING 252
SWIDTH 654 0
DWIDTH 11 0
BBX 10 11 0 0
BITMAP
1b00
0000
e380
6180
6180
6180
6180
6180
6180
6380
3dc0
ENDCHAR
STARTCHAR yacute
ENCODING 253
SWIDTH 654 0
DWIDTH 11 0
BBX 11 15 0 -3
BITMAP
0700
0c00
0000
f8e0
7040
3080
1880
1900
1f00
0e00
0c00
0400
0800
1800
3000
ENDCHAR
STARTCHAR tcedilla
ENCODING 254
SWIDTH 389 0
DWIDTH 7 0
BBX 5 15 1 -3
BITMAP
60
60
60
f8
60
60
60
60
60
60
60
38
60
10
70
ENDCHAR
STARTCHAR abovedot
ENCODING 255
SWIDTH 617 0
DWIDTH 10 0
BBX 2 2 4 11
BITMAP
c0
c0
ENDCHAR
ENDFONT
